# xmcd
#
# Track frame offsets:
# 150
# 35940
# 72137
# 109832
# 147612
# 179080
# 216105
# 241047
# 262477
#
# Disc length: 4024 seconds
# Revision: 4
# Processed by: cddbd v1.5.1PL0 Copyright (c) Steve Scherf et al.
# Submitted via: MusicBin 0.4
#
DISCID=960fb409,960fb609
DTITLE=Various Artist - The Blue Note Years, Vol. 4: Hard Bop and Beyond (d
DTITLE=isc 2)
DYEAR=1967
DGENRE=Jazz
TTITLE0=Herbie Hancock - Maiden Voyage
TTITLE1=Joe Henderson - Made For Joe
TTITLE2=Wayne Shorter - Speak No Evil
TTITLE3=Freddie Hubbard - Hub-Tones
TTITLE4=Hank Mobley - No Room For Squares
TTITLE5=Art Blakey and the Jazz Messengers - Mosaic
TTITLE6=Lee Morgan - Speedball
TTITLE7=Bobby Hutcherson - West 22nd Street Theme
TTITLE8=McCoy Tyner - Passion Dance
EXTD=
EXTT0=YEAR: 1965\nComposer: Herbie Hancock
EXTT1=YEAR: 1966\nComposer: Cedar Walton
EXTT2=YEAR: 1964\nComposer: Wayne Shorter
EXTT3=YEAR: 1962\nComposer: Freddie Hubbard
EXTT4=YEAR: 1963\nComposer: Hank Mobley
EXTT5=YEAR: 1961\nComposer: Cedar Walton
EXTT6=YEAR: 1965\nComposer: Lee Morgan
EXTT7=YEAR: 1965\nComposer: Bobby Hutcherson
EXTT8=YEAR: 1967\nComposer: McCoy Tyner
PLAYORDER=
